# xmcd
#
# Track frame offsets:
#	150
#	47609
#	73846
#	104070
#	134729
#	159679
#	222200
#
# Disc length: 3405 seconds
#
# Revision: 0
# Processed by: cddbd v1.5.2PL0 Copyright (c) Steve Scherf et al.
# Submitted via: audiograbber 1.83.01
#
DISCID=6f0d4b07
DTITLE=Grateful Dead - 93-06-26 Robert F Kennedy Stadium, Washington DC
DYEAR=1900
DGENRE=
TTITLE0=Feel Like A Stranger
TTITLE1=Brown Eyed Women
TTITLE2=Spoonful
TTITLE3=Lazy River Road
TTITLE4=When I Paint My Masterpiece
TTITLE5=Bird Song
TTITLE6=Picasso Moon
EXTD=
EXTT0=
EXTT1=
EXTT2=
EXTT3=
EXTT4=
EXTT5=
EXTT6=
PLAYORDER=
